<svg xmlns="http://www.w3.org/2000/svg" width="640" height="609" style="background:#f5f5f5; font-family:ui-monospace,monospace;">
  <text x="16" y="32" fill="#333" font-size="16" font-weight="bold">Faruzan</text>  <text x="216" y="32" fill="#888" font-size="12">genshin / light</text>
  <text x="16" y="56" fill="#666" font-size="10">AI impression</text>
  <rect x="16" y="62" width="200.66666666666666" height="35" fill="#a5d7e1" rx="2"/>
  <text x="19" y="73" fill="#000000" font-size="7" opacity="0.8">primary</text>
  <text x="116.33333333333333" y="93" fill="#000000" font-size="8" text-anchor="middle">#a5d7e1</text>
  <rect x="219.66666666666666" y="62" width="200.66666666666666" height="35" fill="#415e79" rx="2"/>
  <text x="222.66666666666666" y="73" fill="#ffffff" font-size="7" opacity="0.8">secondary</text>
  <text x="320" y="93" fill="#ffffff" font-size="8" text-anchor="middle">#415e79</text>
  <rect x="423.3333333333333" y="62" width="200.66666666666666" height="35" fill="#c0a172" rx="2"/>
  <text x="426.3333333333333" y="73" fill="#000000" font-size="7" opacity="0.8">tertiary</text>
  <text x="523.6666666666666" y="93" fill="#000000" font-size="8" text-anchor="middle">#c0a172</text>
  <text x="16" y="112" fill="#666" font-size="10">AI neutral</text>
  <rect x="16" y="118" width="302.5" height="28" fill="#f3fafa" rx="2"/>
  <text x="19" y="129" fill="#000000" font-size="7" opacity="0.8">bg</text>
  <text x="167.25" y="142" fill="#000000" font-size="8" text-anchor="middle">#f3fafa</text>
  <rect x="321.5" y="118" width="302.5" height="28" fill="#2e3435" rx="2"/>
  <text x="324.5" y="129" fill="#ffffff" font-size="7" opacity="0.8">fg</text>
  <text x="472.75" y="142" fill="#ffffff" font-size="8" text-anchor="middle">#2e3435</text>
  <text x="16" y="161" fill="#666" font-size="10">accent (generated)</text>
  <rect x="16" y="167" width="119.2" height="40" fill="#4a7a83" rx="2"/>
  <text x="19" y="178" fill="#ffffff" font-size="7" opacity="0.8">c1 keyword</text>
  <text x="75.6" y="203" fill="#ffffff" font-size="8" text-anchor="middle">#4a7a83</text>
  <rect x="138.2" y="167" width="119.2" height="40" fill="#5c767c" rx="2"/>
  <text x="141.2" y="178" fill="#ffffff" font-size="7" opacity="0.8">c1v tag</text>
  <text x="197.79999999999998" y="203" fill="#ffffff" font-size="8" text-anchor="middle">#5c767c</text>
  <rect x="260.4" y="167" width="119.2" height="40" fill="#415e79" rx="2"/>
  <text x="263.4" y="178" fill="#ffffff" font-size="7" opacity="0.8">c2 func</text>
  <text x="320" y="203" fill="#ffffff" font-size="8" text-anchor="middle">#415e79</text>
  <rect x="382.6" y="167" width="119.2" height="40" fill="#8b6e40" rx="2"/>
  <text x="385.6" y="178" fill="#ffffff" font-size="7" opacity="0.8">c3 const</text>
  <text x="442.20000000000005" y="203" fill="#ffffff" font-size="8" text-anchor="middle">#8b6e40</text>
  <rect x="504.8" y="167" width="119.2" height="40" fill="#8b6d40" rx="2"/>
  <text x="507.8" y="178" fill="#ffffff" font-size="7" opacity="0.8">c3v num</text>
  <text x="564.4" y="203" fill="#ffffff" font-size="8" text-anchor="middle">#8b6d40</text>
  <text x="16" y="222" fill="#666" font-size="10">accent (gap-filled)</text>
  <rect x="16" y="228" width="119.2" height="40" fill="#755569" rx="2"/>
  <text x="19" y="239" fill="#ffffff" font-size="7" opacity="0.8">c4 string</text>
  <text x="75.6" y="264" fill="#ffffff" font-size="8" text-anchor="middle">#755569</text>
  <rect x="138.2" y="228" width="119.2" height="40" fill="#526b51" rx="2"/>
  <text x="141.2" y="239" fill="#ffffff" font-size="7" opacity="0.8">c5 type</text>
  <text x="197.79999999999998" y="264" fill="#ffffff" font-size="8" text-anchor="middle">#526b51</text>
  <rect x="260.4" y="228" width="119.2" height="40" fill="#4f4866" rx="2"/>
  <text x="263.4" y="239" fill="#ffffff" font-size="7" opacity="0.8">c6 special</text>
  <text x="320" y="264" fill="#ffffff" font-size="8" text-anchor="middle">#4f4866</text>
  <rect x="382.6" y="228" width="119.2" height="40" fill="#5a3832" rx="2"/>
  <text x="385.6" y="239" fill="#ffffff" font-size="7" opacity="0.8">c7 preproc</text>
  <text x="442.20000000000005" y="264" fill="#ffffff" font-size="8" text-anchor="middle">#5a3832</text>
  <rect x="504.8" y="228" width="119.2" height="40" fill="#972527" rx="2"/>
  <text x="507.8" y="239" fill="#ffffff" font-size="7" opacity="0.8">c8 error</text>
  <text x="564.4" y="264" fill="#ffffff" font-size="8" text-anchor="middle">#972527</text>
  <text x="16" y="283" fill="#666" font-size="10">neutral bg</text>
  <rect x="16" y="289" width="119.2" height="35" fill="#f3fafa" rx="2"/>
  <text x="19" y="300" fill="#000000" font-size="7" opacity="0.8">bg</text>
  <text x="75.6" y="320" fill="#000000" font-size="8" text-anchor="middle">#f3fafa</text>
  <rect x="138.2" y="289" width="119.2" height="35" fill="#ecf3f3" rx="2"/>
  <text x="141.2" y="300" fill="#000000" font-size="7" opacity="0.8">surface</text>
  <text x="197.79999999999998" y="320" fill="#000000" font-size="8" text-anchor="middle">#ecf3f3</text>
  <rect x="260.4" y="289" width="119.2" height="35" fill="#e2e9e9" rx="2"/>
  <text x="263.4" y="300" fill="#000000" font-size="7" opacity="0.8">cursor</text>
  <text x="320" y="320" fill="#000000" font-size="8" text-anchor="middle">#e2e9e9</text>
  <rect x="382.6" y="289" width="119.2" height="35" fill="#e6eded" rx="2"/>
  <text x="385.6" y="300" fill="#000000" font-size="7" opacity="0.8">popup</text>
  <text x="442.20000000000005" y="320" fill="#000000" font-size="8" text-anchor="middle">#e6eded</text>
  <rect x="504.8" y="289" width="119.2" height="35" fill="#d9dfdf" rx="2"/>
  <text x="507.8" y="300" fill="#000000" font-size="7" opacity="0.8">visual</text>
  <text x="564.4" y="320" fill="#000000" font-size="8" text-anchor="middle">#d9dfdf</text>
  <text x="16" y="339" fill="#666" font-size="10">neutral fg</text>
  <rect x="16" y="345" width="119.2" height="35" fill="#1d2324" rx="2"/>
  <text x="19" y="356" fill="#ffffff" font-size="7" opacity="0.8">fg</text>
  <text x="75.6" y="376" fill="#ffffff" font-size="8" text-anchor="middle">#1d2324</text>
  <rect x="138.2" y="345" width="119.2" height="35" fill="#a3a9aa" rx="2"/>
  <text x="141.2" y="356" fill="#000000" font-size="7" opacity="0.8">comment</text>
  <text x="197.79999999999998" y="376" fill="#000000" font-size="8" text-anchor="middle">#a3a9aa</text>
  <rect x="260.4" y="345" width="119.2" height="35" fill="#979d9e" rx="2"/>
  <text x="263.4" y="356" fill="#000000" font-size="7" opacity="0.8">line_nr</text>
  <text x="320" y="376" fill="#000000" font-size="8" text-anchor="middle">#979d9e</text>
  <rect x="382.6" y="345" width="119.2" height="35" fill="#8a9192" rx="2"/>
  <text x="385.6" y="356" fill="#000000" font-size="7" opacity="0.8">border</text>
  <text x="442.20000000000005" y="376" fill="#000000" font-size="8" text-anchor="middle">#8a9192</text>
  <rect x="504.8" y="345" width="119.2" height="35" fill="#afb6b7" rx="2"/>
  <text x="507.8" y="356" fill="#000000" font-size="7" opacity="0.8">delimiter</text>
  <text x="564.4" y="376" fill="#000000" font-size="8" text-anchor="middle">#afb6b7</text>
  <text x="16" y="395" fill="#666" font-size="10">ui</text>
  <rect x="16" y="401" width="119.2" height="35" fill="#415e79" rx="2"/>
  <text x="19" y="412" fill="#ffffff" font-size="7" opacity="0.8">navigation</text>
  <text x="75.6" y="432" fill="#ffffff" font-size="8" text-anchor="middle">#415e79</text>
  <rect x="138.2" y="401" width="119.2" height="35" fill="#4a7a83" rx="2"/>
  <text x="141.2" y="412" fill="#ffffff" font-size="7" opacity="0.8">attention</text>
  <text x="197.79999999999998" y="432" fill="#ffffff" font-size="8" text-anchor="middle">#4a7a83</text>
  <rect x="260.4" y="401" width="119.2" height="35" fill="#8291a0" rx="2"/>
  <text x="263.4" y="412" fill="#000000" font-size="7" opacity="0.8">frame</text>
  <text x="320" y="432" fill="#000000" font-size="8" text-anchor="middle">#8291a0</text>
  <rect x="382.6" y="401" width="119.2" height="35" fill="#b1d2f1" rx="2"/>
  <text x="385.6" y="412" fill="#000000" font-size="7" opacity="0.8">search_bg</text>
  <text x="442.20000000000005" y="432" fill="#000000" font-size="8" text-anchor="middle">#b1d2f1</text>
  <rect x="504.8" y="401" width="119.2" height="35" fill="#d9dfdf" rx="2"/>
  <text x="507.8" y="412" fill="#000000" font-size="7" opacity="0.8">pmenu_sel</text>
  <text x="564.4" y="432" fill="#000000" font-size="8" text-anchor="middle">#d9dfdf</text>
  <text x="16" y="459" fill="#666" font-size="10">syntax preview</text>
  <rect x="16" y="465" width="608" height="120" fill="#f3fafa" rx="4"/>
  <text x="28" y="481" fill="#4a7a83" font-size="11" font-family="monospace">import</text>
  <text x="67.6" y="481" fill="#1d2324" font-size="11" font-family="monospace"> { useState } </text>
  <text x="160" y="481" fill="#4a7a83" font-size="11" font-family="monospace">from</text>
  <text x="186.4" y="481" fill="#755569" font-size="11" font-family="monospace"> "react"</text>
  <text x="28" y="497" fill="#4a7a83" font-size="11" font-family="monospace">const</text>
  <text x="61" y="497" fill="#1d2324" font-size="11" font-family="monospace"> count</text>
  <text x="100.6" y="497" fill="#1d2324" font-size="11" font-family="monospace"> = </text>
  <text x="120.39999999999999" y="497" fill="#8b6d40" font-size="11" font-family="monospace">42</text>
  <text x="28" y="513" fill="#4a7a83" font-size="11" font-family="monospace">function</text>
  <text x="80.8" y="513" fill="#415e79" font-size="11" font-family="monospace"> greet</text>
  <text x="120.39999999999999" y="513" fill="#afb6b7" font-size="11" font-family="monospace">(</text>
  <text x="126.99999999999999" y="513" fill="#5a3832" font-size="11" font-family="monospace">name</text>
  <text x="153.39999999999998" y="513" fill="#afb6b7" font-size="11" font-family="monospace">: </text>
  <text x="166.59999999999997" y="513" fill="#526b51" font-size="11" font-family="monospace">string</text>
  <text x="206.19999999999996" y="513" fill="#afb6b7" font-size="11" font-family="monospace">)</text>
  <text x="28" y="529" fill="#a3a9aa" font-size="11" font-family="monospace">  // call the greeting</text>
  <text x="28" y="545" fill="#4f4866" font-size="11" font-family="monospace">  console</text>
  <text x="87.4" y="545" fill="#afb6b7" font-size="11" font-family="monospace">.log(</text>
  <text x="120.4" y="545" fill="#755569" font-size="11" font-family="monospace">`Hello ${</text>
  <text x="179.8" y="545" fill="#1d2324" font-size="11" font-family="monospace">name</text>
  <text x="206.20000000000002" y="545" fill="#755569" font-size="11" font-family="monospace">}`</text>
  <text x="219.4" y="545" fill="#afb6b7" font-size="11" font-family="monospace">)</text>
  <text x="28" y="561" fill="#4a7a83" font-size="11" font-family="monospace">  return</text>
  <text x="80.8" y="561" fill="#8b6e40" font-size="11" font-family="monospace"> true</text>
  <text x="28" y="577" fill="#4a7a83" font-size="11" font-family="monospace">class</text>
  <text x="61" y="577" fill="#526b51" font-size="11" font-family="monospace"> MyError</text>
  <text x="113.8" y="577" fill="#4a7a83" font-size="11" font-family="monospace"> extends </text>
  <text x="173.2" y="577" fill="#972527" font-size="11" font-family="monospace">Error</text>
</svg>