<svg xmlns="http://www.w3.org/2000/svg" width="640" height="609" style="background:#f5f5f5; font-family:ui-monospace,monospace;">
  <text x="16" y="32" fill="#333" font-size="16" font-weight="bold">Klee</text>  <text x="216" y="32" fill="#888" font-size="12">genshin / light</text>
  <text x="16" y="56" fill="#666" font-size="10">AI impression</text>
  <rect x="16" y="62" width="200.66666666666666" height="35" fill="#B32D1E" rx="2"/>
  <text x="19" y="73" fill="#ffffff" font-size="7" opacity="0.8">primary</text>
  <text x="116.33333333333333" y="93" fill="#ffffff" font-size="8" text-anchor="middle">#B32D1E</text>
  <rect x="219.66666666666666" y="62" width="200.66666666666666" height="35" fill="#F2E6CE" rx="2"/>
  <text x="222.66666666666666" y="73" fill="#000000" font-size="7" opacity="0.8">secondary</text>
  <text x="320" y="93" fill="#000000" font-size="8" text-anchor="middle">#F2E6CE</text>
  <rect x="423.3333333333333" y="62" width="200.66666666666666" height="35" fill="#C1924B" rx="2"/>
  <text x="426.3333333333333" y="73" fill="#000000" font-size="7" opacity="0.8">tertiary</text>
  <text x="523.6666666666666" y="93" fill="#000000" font-size="8" text-anchor="middle">#C1924B</text>
  <text x="16" y="112" fill="#666" font-size="10">AI neutral</text>
  <rect x="16" y="118" width="302.5" height="28" fill="#FDF6F2" rx="2"/>
  <text x="19" y="129" fill="#000000" font-size="7" opacity="0.8">bg</text>
  <text x="167.25" y="142" fill="#000000" font-size="8" text-anchor="middle">#FDF6F2</text>
  <rect x="321.5" y="118" width="302.5" height="28" fill="#3B3330" rx="2"/>
  <text x="324.5" y="129" fill="#ffffff" font-size="7" opacity="0.8">fg</text>
  <text x="472.75" y="142" fill="#ffffff" font-size="8" text-anchor="middle">#3B3330</text>
  <text x="16" y="161" fill="#666" font-size="10">accent (generated)</text>
  <rect x="16" y="167" width="119.2" height="40" fill="#b32d1e" rx="2"/>
  <text x="19" y="178" fill="#ffffff" font-size="7" opacity="0.8">c1 keyword</text>
  <text x="75.6" y="203" fill="#ffffff" font-size="8" text-anchor="middle">#b32d1e</text>
  <rect x="138.2" y="167" width="119.2" height="40" fill="#984c40" rx="2"/>
  <text x="141.2" y="178" fill="#ffffff" font-size="7" opacity="0.8">c1v tag</text>
  <text x="197.79999999999998" y="203" fill="#ffffff" font-size="8" text-anchor="middle">#984c40</text>
  <rect x="260.4" y="167" width="119.2" height="40" fill="#756a55" rx="2"/>
  <text x="263.4" y="178" fill="#ffffff" font-size="7" opacity="0.8">c2 func</text>
  <text x="320" y="203" fill="#ffffff" font-size="8" text-anchor="middle">#756a55</text>
  <rect x="382.6" y="167" width="119.2" height="40" fill="#8e6212" rx="2"/>
  <text x="385.6" y="178" fill="#ffffff" font-size="7" opacity="0.8">c3 const</text>
  <text x="442.20000000000005" y="203" fill="#ffffff" font-size="8" text-anchor="middle">#8e6212</text>
  <rect x="504.8" y="167" width="119.2" height="40" fill="#8e6212" rx="2"/>
  <text x="507.8" y="178" fill="#ffffff" font-size="7" opacity="0.8">c3v num</text>
  <text x="564.4" y="203" fill="#ffffff" font-size="8" text-anchor="middle">#8e6212</text>
  <text x="16" y="222" fill="#666" font-size="10">accent (gap-filled)</text>
  <rect x="16" y="228" width="119.2" height="40" fill="#005379" rx="2"/>
  <text x="19" y="239" fill="#ffffff" font-size="7" opacity="0.8">c4 string</text>
  <text x="75.6" y="264" fill="#ffffff" font-size="8" text-anchor="middle">#005379</text>
  <rect x="138.2" y="228" width="119.2" height="40" fill="#247451" rx="2"/>
  <text x="141.2" y="239" fill="#ffffff" font-size="7" opacity="0.8">c5 type</text>
  <text x="197.79999999999998" y="264" fill="#ffffff" font-size="8" text-anchor="middle">#247451</text>
  <rect x="260.4" y="228" width="119.2" height="40" fill="#6b477d" rx="2"/>
  <text x="263.4" y="239" fill="#ffffff" font-size="7" opacity="0.8">c6 special</text>
  <text x="320" y="264" fill="#ffffff" font-size="8" text-anchor="middle">#6b477d</text>
  <rect x="382.6" y="228" width="119.2" height="40" fill="#394a00" rx="2"/>
  <text x="385.6" y="239" fill="#ffffff" font-size="7" opacity="0.8">c7 preproc</text>
  <text x="442.20000000000005" y="264" fill="#ffffff" font-size="8" text-anchor="middle">#394a00</text>
  <rect x="504.8" y="228" width="119.2" height="40" fill="#922452" rx="2"/>
  <text x="507.8" y="239" fill="#ffffff" font-size="7" opacity="0.8">c8 error</text>
  <text x="564.4" y="264" fill="#ffffff" font-size="8" text-anchor="middle">#922452</text>
  <text x="16" y="283" fill="#666" font-size="10">neutral bg</text>
  <rect x="16" y="289" width="119.2" height="35" fill="#f4ede9" rx="2"/>
  <text x="19" y="300" fill="#000000" font-size="7" opacity="0.8">bg</text>
  <text x="75.6" y="320" fill="#000000" font-size="8" text-anchor="middle">#f4ede9</text>
  <rect x="138.2" y="289" width="119.2" height="35" fill="#ede6e2" rx="2"/>
  <text x="141.2" y="300" fill="#000000" font-size="7" opacity="0.8">surface</text>
  <text x="197.79999999999998" y="320" fill="#000000" font-size="8" text-anchor="middle">#ede6e2</text>
  <rect x="260.4" y="289" width="119.2" height="35" fill="#e9dbd3" rx="2"/>
  <text x="263.4" y="300" fill="#000000" font-size="7" opacity="0.8">cursor</text>
  <text x="320" y="320" fill="#000000" font-size="8" text-anchor="middle">#e9dbd3</text>
  <rect x="382.6" y="289" width="119.2" height="35" fill="#e7e0dc" rx="2"/>
  <text x="385.6" y="300" fill="#000000" font-size="7" opacity="0.8">popup</text>
  <text x="442.20000000000005" y="320" fill="#000000" font-size="8" text-anchor="middle">#e7e0dc</text>
  <rect x="504.8" y="289" width="119.2" height="35" fill="#eecbc5" rx="2"/>
  <text x="507.8" y="300" fill="#000000" font-size="7" opacity="0.8">visual</text>
  <text x="564.4" y="320" fill="#000000" font-size="8" text-anchor="middle">#eecbc5</text>
  <text x="16" y="339" fill="#666" font-size="10">neutral fg</text>
  <rect x="16" y="345" width="119.2" height="35" fill="#27201d" rx="2"/>
  <text x="19" y="356" fill="#ffffff" font-size="7" opacity="0.8">fg</text>
  <text x="75.6" y="376" fill="#ffffff" font-size="8" text-anchor="middle">#27201d</text>
  <rect x="138.2" y="345" width="119.2" height="35" fill="#a8a09d" rx="2"/>
  <text x="141.2" y="356" fill="#000000" font-size="7" opacity="0.8">comment</text>
  <text x="197.79999999999998" y="376" fill="#000000" font-size="8" text-anchor="middle">#a8a09d</text>
  <rect x="260.4" y="345" width="119.2" height="35" fill="#9b9492" rx="2"/>
  <text x="263.4" y="356" fill="#000000" font-size="7" opacity="0.8">line_nr</text>
  <text x="320" y="376" fill="#000000" font-size="8" text-anchor="middle">#9b9492</text>
  <rect x="382.6" y="345" width="119.2" height="35" fill="#8f8885" rx="2"/>
  <text x="385.6" y="356" fill="#000000" font-size="7" opacity="0.8">border</text>
  <text x="442.20000000000005" y="376" fill="#000000" font-size="8" text-anchor="middle">#8f8885</text>
  <rect x="504.8" y="345" width="119.2" height="35" fill="#b4ada9" rx="2"/>
  <text x="507.8" y="356" fill="#000000" font-size="7" opacity="0.8">delimiter</text>
  <text x="564.4" y="376" fill="#000000" font-size="8" text-anchor="middle">#b4ada9</text>
  <text x="16" y="395" fill="#666" font-size="10">ui</text>
  <rect x="16" y="401" width="119.2" height="35" fill="#b32d1e" rx="2"/>
  <text x="19" y="412" fill="#ffffff" font-size="7" opacity="0.8">navigation</text>
  <text x="75.6" y="432" fill="#ffffff" font-size="8" text-anchor="middle">#b32d1e</text>
  <rect x="138.2" y="401" width="119.2" height="35" fill="#8e6212" rx="2"/>
  <text x="141.2" y="412" fill="#ffffff" font-size="7" opacity="0.8">attention</text>
  <text x="197.79999999999998" y="432" fill="#ffffff" font-size="8" text-anchor="middle">#8e6212</text>
  <rect x="260.4" y="401" width="119.2" height="35" fill="#be7b6f" rx="2"/>
  <text x="263.4" y="412" fill="#000000" font-size="7" opacity="0.8">frame</text>
  <text x="320" y="432" fill="#000000" font-size="8" text-anchor="middle">#be7b6f</text>
  <rect x="382.6" y="401" width="119.2" height="35" fill="#ffbaae" rx="2"/>
  <text x="385.6" y="412" fill="#000000" font-size="7" opacity="0.8">search_bg</text>
  <text x="442.20000000000005" y="432" fill="#000000" font-size="8" text-anchor="middle">#ffbaae</text>
  <rect x="504.8" y="401" width="119.2" height="35" fill="#eecbc5" rx="2"/>
  <text x="507.8" y="412" fill="#000000" font-size="7" opacity="0.8">pmenu_sel</text>
  <text x="564.4" y="432" fill="#000000" font-size="8" text-anchor="middle">#eecbc5</text>
  <text x="16" y="459" fill="#666" font-size="10">syntax preview</text>
  <rect x="16" y="465" width="608" height="120" fill="#f4ede9" rx="4"/>
  <text x="28" y="481" fill="#b32d1e" font-size="11" font-family="monospace">import</text>
  <text x="67.6" y="481" fill="#27201d" font-size="11" font-family="monospace"> { useState } </text>
  <text x="160" y="481" fill="#b32d1e" font-size="11" font-family="monospace">from</text>
  <text x="186.4" y="481" fill="#005379" font-size="11" font-family="monospace"> "react"</text>
  <text x="28" y="497" fill="#b32d1e" font-size="11" font-family="monospace">const</text>
  <text x="61" y="497" fill="#27201d" font-size="11" font-family="monospace"> count</text>
  <text x="100.6" y="497" fill="#27201d" font-size="11" font-family="monospace"> = </text>
  <text x="120.39999999999999" y="497" fill="#8e6212" font-size="11" font-family="monospace">42</text>
  <text x="28" y="513" fill="#b32d1e" font-size="11" font-family="monospace">function</text>
  <text x="80.8" y="513" fill="#756a55" font-size="11" font-family="monospace"> greet</text>
  <text x="120.39999999999999" y="513" fill="#b4ada9" font-size="11" font-family="monospace">(</text>
  <text x="126.99999999999999" y="513" fill="#394a00" font-size="11" font-family="monospace">name</text>
  <text x="153.39999999999998" y="513" fill="#b4ada9" font-size="11" font-family="monospace">: </text>
  <text x="166.59999999999997" y="513" fill="#247451" font-size="11" font-family="monospace">string</text>
  <text x="206.19999999999996" y="513" fill="#b4ada9" font-size="11" font-family="monospace">)</text>
  <text x="28" y="529" fill="#a8a09d" font-size="11" font-family="monospace">  // call the greeting</text>
  <text x="28" y="545" fill="#6b477d" font-size="11" font-family="monospace">  console</text>
  <text x="87.4" y="545" fill="#b4ada9" font-size="11" font-family="monospace">.log(</text>
  <text x="120.4" y="545" fill="#005379" font-size="11" font-family="monospace">`Hello ${</text>
  <text x="179.8" y="545" fill="#27201d" font-size="11" font-family="monospace">name</text>
  <text x="206.20000000000002" y="545" fill="#005379" font-size="11" font-family="monospace">}`</text>
  <text x="219.4" y="545" fill="#b4ada9" font-size="11" font-family="monospace">)</text>
  <text x="28" y="561" fill="#b32d1e" font-size="11" font-family="monospace">  return</text>
  <text x="80.8" y="561" fill="#8e6212" font-size="11" font-family="monospace"> true</text>
  <text x="28" y="577" fill="#b32d1e" font-size="11" font-family="monospace">class</text>
  <text x="61" y="577" fill="#247451" font-size="11" font-family="monospace"> MyError</text>
  <text x="113.8" y="577" fill="#b32d1e" font-size="11" font-family="monospace"> extends </text>
  <text x="173.2" y="577" fill="#922452" font-size="11" font-family="monospace">Error</text>
</svg>