<svg xmlns="http://www.w3.org/2000/svg" width="640" height="609" style="background:#f5f5f5; font-family:ui-monospace,monospace;">
  <text x="16" y="32" fill="#333" font-size="16" font-weight="bold">Yoimiya</text>  <text x="216" y="32" fill="#888" font-size="12">genshin / light</text>
  <text x="16" y="56" fill="#666" font-size="10">AI impression</text>
  <rect x="16" y="62" width="200.66666666666666" height="35" fill="#d24335" rx="2"/>
  <text x="19" y="73" fill="#ffffff" font-size="7" opacity="0.8">primary</text>
  <text x="116.33333333333333" y="93" fill="#ffffff" font-size="8" text-anchor="middle">#d24335</text>
  <rect x="219.66666666666666" y="62" width="200.66666666666666" height="35" fill="#ebb175" rx="2"/>
  <text x="222.66666666666666" y="73" fill="#000000" font-size="7" opacity="0.8">secondary</text>
  <text x="320" y="93" fill="#000000" font-size="8" text-anchor="middle">#ebb175</text>
  <rect x="423.3333333333333" y="62" width="200.66666666666666" height="35" fill="#333246" rx="2"/>
  <text x="426.3333333333333" y="73" fill="#ffffff" font-size="7" opacity="0.8">tertiary</text>
  <text x="523.6666666666666" y="93" fill="#ffffff" font-size="8" text-anchor="middle">#333246</text>
  <text x="16" y="112" fill="#666" font-size="10">AI neutral</text>
  <rect x="16" y="118" width="302.5" height="28" fill="#fcf7f4" rx="2"/>
  <text x="19" y="129" fill="#000000" font-size="7" opacity="0.8">bg</text>
  <text x="167.25" y="142" fill="#000000" font-size="8" text-anchor="middle">#fcf7f4</text>
  <rect x="321.5" y="118" width="302.5" height="28" fill="#3a3331" rx="2"/>
  <text x="324.5" y="129" fill="#ffffff" font-size="7" opacity="0.8">fg</text>
  <text x="472.75" y="142" fill="#ffffff" font-size="8" text-anchor="middle">#3a3331</text>
  <text x="16" y="161" fill="#666" font-size="10">accent (generated)</text>
  <rect x="16" y="167" width="119.2" height="40" fill="#cb3c2f" rx="2"/>
  <text x="19" y="178" fill="#ffffff" font-size="7" opacity="0.8">c1 keyword</text>
  <text x="75.6" y="203" fill="#ffffff" font-size="8" text-anchor="middle">#cb3c2f</text>
  <rect x="138.2" y="167" width="119.2" height="40" fill="#ad5b4f" rx="2"/>
  <text x="141.2" y="178" fill="#ffffff" font-size="7" opacity="0.8">c1v tag</text>
  <text x="197.79999999999998" y="203" fill="#ffffff" font-size="8" text-anchor="middle">#ad5b4f</text>
  <rect x="260.4" y="167" width="119.2" height="40" fill="#9a6527" rx="2"/>
  <text x="263.4" y="178" fill="#ffffff" font-size="7" opacity="0.8">c2 func</text>
  <text x="320" y="203" fill="#ffffff" font-size="8" text-anchor="middle">#9a6527</text>
  <rect x="382.6" y="167" width="119.2" height="40" fill="#333246" rx="2"/>
  <text x="385.6" y="178" fill="#ffffff" font-size="7" opacity="0.8">c3 const</text>
  <text x="442.20000000000005" y="203" fill="#ffffff" font-size="8" text-anchor="middle">#333246</text>
  <rect x="504.8" y="167" width="119.2" height="40" fill="#201e31" rx="2"/>
  <text x="507.8" y="178" fill="#ffffff" font-size="7" opacity="0.8">c3v num</text>
  <text x="564.4" y="203" fill="#ffffff" font-size="8" text-anchor="middle">#201e31</text>
  <text x="16" y="222" fill="#666" font-size="10">accent (gap-filled)</text>
  <rect x="16" y="228" width="119.2" height="40" fill="#047462" rx="2"/>
  <text x="19" y="239" fill="#ffffff" font-size="7" opacity="0.8">c4 string</text>
  <text x="75.6" y="264" fill="#ffffff" font-size="8" text-anchor="middle">#047462</text>
  <rect x="138.2" y="228" width="119.2" height="40" fill="#3b4900" rx="2"/>
  <text x="141.2" y="239" fill="#ffffff" font-size="7" opacity="0.8">c5 type</text>
  <text x="197.79999999999998" y="264" fill="#ffffff" font-size="8" text-anchor="middle">#3b4900</text>
  <rect x="260.4" y="228" width="119.2" height="40" fill="#005473" rx="2"/>
  <text x="263.4" y="239" fill="#ffffff" font-size="7" opacity="0.8">c6 special</text>
  <text x="320" y="264" fill="#ffffff" font-size="8" text-anchor="middle">#005473</text>
  <rect x="382.6" y="228" width="119.2" height="40" fill="#814a73" rx="2"/>
  <text x="385.6" y="239" fill="#ffffff" font-size="7" opacity="0.8">c7 preproc</text>
  <text x="442.20000000000005" y="264" fill="#ffffff" font-size="8" text-anchor="middle">#814a73</text>
  <rect x="504.8" y="228" width="119.2" height="40" fill="#922452" rx="2"/>
  <text x="507.8" y="239" fill="#ffffff" font-size="7" opacity="0.8">c8 error</text>
  <text x="564.4" y="264" fill="#ffffff" font-size="8" text-anchor="middle">#922452</text>
  <text x="16" y="283" fill="#666" font-size="10">neutral bg</text>
  <rect x="16" y="289" width="119.2" height="35" fill="#fcf7f4" rx="2"/>
  <text x="19" y="300" fill="#000000" font-size="7" opacity="0.8">bg</text>
  <text x="75.6" y="320" fill="#000000" font-size="8" text-anchor="middle">#fcf7f4</text>
  <rect x="138.2" y="289" width="119.2" height="35" fill="#f5f0ed" rx="2"/>
  <text x="141.2" y="300" fill="#000000" font-size="7" opacity="0.8">surface</text>
  <text x="197.79999999999998" y="320" fill="#000000" font-size="8" text-anchor="middle">#f5f0ed</text>
  <rect x="260.4" y="289" width="119.2" height="35" fill="#f2edea" rx="2"/>
  <text x="263.4" y="300" fill="#000000" font-size="7" opacity="0.8">cursor</text>
  <text x="320" y="320" fill="#000000" font-size="8" text-anchor="middle">#f2edea</text>
  <rect x="382.6" y="289" width="119.2" height="35" fill="#efeae7" rx="2"/>
  <text x="385.6" y="300" fill="#000000" font-size="7" opacity="0.8">popup</text>
  <text x="442.20000000000005" y="320" fill="#000000" font-size="8" text-anchor="middle">#efeae7</text>
  <rect x="504.8" y="289" width="119.2" height="35" fill="#e8e3e0" rx="2"/>
  <text x="507.8" y="300" fill="#000000" font-size="7" opacity="0.8">visual</text>
  <text x="564.4" y="320" fill="#000000" font-size="8" text-anchor="middle">#e8e3e0</text>
  <text x="16" y="339" fill="#666" font-size="10">neutral fg</text>
  <rect x="16" y="345" width="119.2" height="35" fill="#26201e" rx="2"/>
  <text x="19" y="356" fill="#ffffff" font-size="7" opacity="0.8">fg</text>
  <text x="75.6" y="376" fill="#ffffff" font-size="8" text-anchor="middle">#26201e</text>
  <rect x="138.2" y="345" width="119.2" height="35" fill="#aca6a5" rx="2"/>
  <text x="141.2" y="356" fill="#000000" font-size="7" opacity="0.8">comment</text>
  <text x="197.79999999999998" y="376" fill="#000000" font-size="8" text-anchor="middle">#aca6a5</text>
  <rect x="260.4" y="345" width="119.2" height="35" fill="#9f9a98" rx="2"/>
  <text x="263.4" y="356" fill="#000000" font-size="7" opacity="0.8">line_nr</text>
  <text x="320" y="376" fill="#000000" font-size="8" text-anchor="middle">#9f9a98</text>
  <rect x="382.6" y="345" width="119.2" height="35" fill="#938e8c" rx="2"/>
  <text x="385.6" y="356" fill="#000000" font-size="7" opacity="0.8">border</text>
  <text x="442.20000000000005" y="376" fill="#000000" font-size="8" text-anchor="middle">#938e8c</text>
  <rect x="504.8" y="345" width="119.2" height="35" fill="#b8b3b2" rx="2"/>
  <text x="507.8" y="356" fill="#000000" font-size="7" opacity="0.8">delimiter</text>
  <text x="564.4" y="376" fill="#000000" font-size="8" text-anchor="middle">#b8b3b2</text>
  <text x="16" y="395" fill="#666" font-size="10">ui</text>
  <rect x="16" y="401" width="119.2" height="35" fill="#cb3c2f" rx="2"/>
  <text x="19" y="412" fill="#ffffff" font-size="7" opacity="0.8">navigation</text>
  <text x="75.6" y="432" fill="#ffffff" font-size="8" text-anchor="middle">#cb3c2f</text>
  <rect x="138.2" y="401" width="119.2" height="35" fill="#9a6527" rx="2"/>
  <text x="141.2" y="412" fill="#ffffff" font-size="7" opacity="0.8">attention</text>
  <text x="197.79999999999998" y="432" fill="#ffffff" font-size="8" text-anchor="middle">#9a6527</text>
  <rect x="260.4" y="401" width="119.2" height="35" fill="#c07a6f" rx="2"/>
  <text x="263.4" y="412" fill="#000000" font-size="7" opacity="0.8">frame</text>
  <text x="320" y="432" fill="#000000" font-size="8" text-anchor="middle">#c07a6f</text>
  <rect x="382.6" y="401" width="119.2" height="35" fill="#ffbaaf" rx="2"/>
  <text x="385.6" y="412" fill="#000000" font-size="7" opacity="0.8">search_bg</text>
  <text x="442.20000000000005" y="432" fill="#000000" font-size="8" text-anchor="middle">#ffbaaf</text>
  <rect x="504.8" y="401" width="119.2" height="35" fill="#e8e3e0" rx="2"/>
  <text x="507.8" y="412" fill="#000000" font-size="7" opacity="0.8">pmenu_sel</text>
  <text x="564.4" y="432" fill="#000000" font-size="8" text-anchor="middle">#e8e3e0</text>
  <text x="16" y="459" fill="#666" font-size="10">syntax preview</text>
  <rect x="16" y="465" width="608" height="120" fill="#fcf7f4" rx="4"/>
  <text x="28" y="481" fill="#cb3c2f" font-size="11" font-family="monospace">import</text>
  <text x="67.6" y="481" fill="#26201e" font-size="11" font-family="monospace"> { useState } </text>
  <text x="160" y="481" fill="#cb3c2f" font-size="11" font-family="monospace">from</text>
  <text x="186.4" y="481" fill="#047462" font-size="11" font-family="monospace"> "react"</text>
  <text x="28" y="497" fill="#cb3c2f" font-size="11" font-family="monospace">const</text>
  <text x="61" y="497" fill="#26201e" font-size="11" font-family="monospace"> count</text>
  <text x="100.6" y="497" fill="#26201e" font-size="11" font-family="monospace"> = </text>
  <text x="120.39999999999999" y="497" fill="#201e31" font-size="11" font-family="monospace">42</text>
  <text x="28" y="513" fill="#cb3c2f" font-size="11" font-family="monospace">function</text>
  <text x="80.8" y="513" fill="#9a6527" font-size="11" font-family="monospace"> greet</text>
  <text x="120.39999999999999" y="513" fill="#b8b3b2" font-size="11" font-family="monospace">(</text>
  <text x="126.99999999999999" y="513" fill="#814a73" font-size="11" font-family="monospace">name</text>
  <text x="153.39999999999998" y="513" fill="#b8b3b2" font-size="11" font-family="monospace">: </text>
  <text x="166.59999999999997" y="513" fill="#3b4900" font-size="11" font-family="monospace">string</text>
  <text x="206.19999999999996" y="513" fill="#b8b3b2" font-size="11" font-family="monospace">)</text>
  <text x="28" y="529" fill="#aca6a5" font-size="11" font-family="monospace">  // call the greeting</text>
  <text x="28" y="545" fill="#005473" font-size="11" font-family="monospace">  console</text>
  <text x="87.4" y="545" fill="#b8b3b2" font-size="11" font-family="monospace">.log(</text>
  <text x="120.4" y="545" fill="#047462" font-size="11" font-family="monospace">`Hello ${</text>
  <text x="179.8" y="545" fill="#26201e" font-size="11" font-family="monospace">name</text>
  <text x="206.20000000000002" y="545" fill="#047462" font-size="11" font-family="monospace">}`</text>
  <text x="219.4" y="545" fill="#b8b3b2" font-size="11" font-family="monospace">)</text>
  <text x="28" y="561" fill="#cb3c2f" font-size="11" font-family="monospace">  return</text>
  <text x="80.8" y="561" fill="#333246" font-size="11" font-family="monospace"> true</text>
  <text x="28" y="577" fill="#cb3c2f" font-size="11" font-family="monospace">class</text>
  <text x="61" y="577" fill="#3b4900" font-size="11" font-family="monospace"> MyError</text>
  <text x="113.8" y="577" fill="#cb3c2f" font-size="11" font-family="monospace"> extends </text>
  <text x="173.2" y="577" fill="#922452" font-size="11" font-family="monospace">Error</text>
</svg>