<svg xmlns="http://www.w3.org/2000/svg" width="640" height="609" style="background:#0a0a0a; font-family:ui-monospace,monospace;">
  <text x="16" y="32" fill="#ccc" font-size="16" font-weight="bold">Argenti</text>  <text x="216" y="32" fill="#666" font-size="12">starrail / dark</text>
  <text x="16" y="56" fill="#888" font-size="10">AI impression</text>
  <rect x="16" y="62" width="200.66666666666666" height="35" fill="#C11B17" rx="2"/>
  <text x="19" y="73" fill="#ffffff" font-size="7" opacity="0.8">primary</text>
  <text x="116.33333333333333" y="93" fill="#ffffff" font-size="8" text-anchor="middle">#C11B17</text>
  <rect x="219.66666666666666" y="62" width="200.66666666666666" height="35" fill="#D6D6D6" rx="2"/>
  <text x="222.66666666666666" y="73" fill="#000000" font-size="7" opacity="0.8">secondary</text>
  <text x="320" y="93" fill="#000000" font-size="8" text-anchor="middle">#D6D6D6</text>
  <rect x="423.3333333333333" y="62" width="200.66666666666666" height="35" fill="#B89753" rx="2"/>
  <text x="426.3333333333333" y="73" fill="#000000" font-size="7" opacity="0.8">tertiary</text>
  <text x="523.6666666666666" y="93" fill="#000000" font-size="8" text-anchor="middle">#B89753</text>
  <text x="16" y="112" fill="#888" font-size="10">AI neutral</text>
  <rect x="16" y="118" width="302.5" height="28" fill="#201A1A" rx="2"/>
  <text x="19" y="129" fill="#ffffff" font-size="7" opacity="0.8">bg</text>
  <text x="167.25" y="142" fill="#ffffff" font-size="8" text-anchor="middle">#201A1A</text>
  <rect x="321.5" y="118" width="302.5" height="28" fill="#EDE6E6" rx="2"/>
  <text x="324.5" y="129" fill="#000000" font-size="7" opacity="0.8">fg</text>
  <text x="472.75" y="142" fill="#000000" font-size="8" text-anchor="middle">#EDE6E6</text>
  <text x="16" y="161" fill="#888" font-size="10">accent (generated)</text>
  <rect x="16" y="167" width="119.2" height="40" fill="#e9493c" rx="2"/>
  <text x="19" y="178" fill="#ffffff" font-size="7" opacity="0.8">c1 keyword</text>
  <text x="75.6" y="203" fill="#ffffff" font-size="8" text-anchor="middle">#e9493c</text>
  <rect x="138.2" y="167" width="119.2" height="40" fill="#c3685c" rx="2"/>
  <text x="141.2" y="178" fill="#000000" font-size="7" opacity="0.8">c1v tag</text>
  <text x="197.79999999999998" y="203" fill="#000000" font-size="8" text-anchor="middle">#c3685c</text>
  <rect x="260.4" y="167" width="119.2" height="40" fill="#e6d0cd" rx="2"/>
  <text x="263.4" y="178" fill="#000000" font-size="7" opacity="0.8">c2 func</text>
  <text x="320" y="203" fill="#000000" font-size="8" text-anchor="middle">#e6d0cd</text>
  <rect x="382.6" y="167" width="119.2" height="40" fill="#b89753" rx="2"/>
  <text x="385.6" y="178" fill="#000000" font-size="7" opacity="0.8">c3 const</text>
  <text x="442.20000000000005" y="203" fill="#000000" font-size="8" text-anchor="middle">#b89753</text>
  <rect x="504.8" y="167" width="119.2" height="40" fill="#d2b06c" rx="2"/>
  <text x="507.8" y="178" fill="#000000" font-size="7" opacity="0.8">c3v num</text>
  <text x="564.4" y="203" fill="#000000" font-size="8" text-anchor="middle">#d2b06c</text>
  <text x="16" y="222" fill="#888" font-size="10">accent (gap-filled)</text>
  <rect x="16" y="228" width="119.2" height="40" fill="#77ceda" rx="2"/>
  <text x="19" y="239" fill="#000000" font-size="7" opacity="0.8">c4 string</text>
  <text x="75.6" y="264" fill="#000000" font-size="8" text-anchor="middle">#77ceda</text>
  <rect x="138.2" y="228" width="119.2" height="40" fill="#6eadd4" rx="2"/>
  <text x="141.2" y="239" fill="#000000" font-size="7" opacity="0.8">c5 type</text>
  <text x="197.79999999999998" y="264" fill="#000000" font-size="8" text-anchor="middle">#6eadd4</text>
  <rect x="260.4" y="228" width="119.2" height="40" fill="#818e50" rx="2"/>
  <text x="263.4" y="239" fill="#000000" font-size="7" opacity="0.8">c6 special</text>
  <text x="320" y="264" fill="#000000" font-size="8" text-anchor="middle">#818e50</text>
  <rect x="382.6" y="228" width="119.2" height="40" fill="#b8a5e1" rx="2"/>
  <text x="385.6" y="239" fill="#000000" font-size="7" opacity="0.8">c7 preproc</text>
  <text x="442.20000000000005" y="264" fill="#000000" font-size="8" text-anchor="middle">#b8a5e1</text>
  <rect x="504.8" y="228" width="119.2" height="40" fill="#ee79a1" rx="2"/>
  <text x="507.8" y="239" fill="#000000" font-size="7" opacity="0.8">c8 error</text>
  <text x="564.4" y="264" fill="#000000" font-size="8" text-anchor="middle">#ee79a1</text>
  <text x="16" y="283" fill="#888" font-size="10">neutral bg</text>
  <rect x="16" y="289" width="119.2" height="35" fill="#1f1919" rx="2"/>
  <text x="19" y="300" fill="#ffffff" font-size="7" opacity="0.8">bg</text>
  <text x="75.6" y="320" fill="#ffffff" font-size="8" text-anchor="middle">#1f1919</text>
  <rect x="138.2" y="289" width="119.2" height="35" fill="#241e1e" rx="2"/>
  <text x="141.2" y="300" fill="#ffffff" font-size="7" opacity="0.8">surface</text>
  <text x="197.79999999999998" y="320" fill="#ffffff" font-size="8" text-anchor="middle">#241e1e</text>
  <rect x="260.4" y="289" width="119.2" height="35" fill="#262020" rx="2"/>
  <text x="263.4" y="300" fill="#ffffff" font-size="7" opacity="0.8">cursor</text>
  <text x="320" y="320" fill="#ffffff" font-size="8" text-anchor="middle">#262020</text>
  <rect x="382.6" y="289" width="119.2" height="35" fill="#282222" rx="2"/>
  <text x="385.6" y="300" fill="#ffffff" font-size="7" opacity="0.8">popup</text>
  <text x="442.20000000000005" y="320" fill="#ffffff" font-size="8" text-anchor="middle">#282222</text>
  <rect x="504.8" y="289" width="119.2" height="35" fill="#2d2727" rx="2"/>
  <text x="507.8" y="300" fill="#ffffff" font-size="7" opacity="0.8">visual</text>
  <text x="564.4" y="320" fill="#ffffff" font-size="8" text-anchor="middle">#2d2727</text>
  <text x="16" y="339" fill="#888" font-size="10">neutral fg</text>
  <rect x="16" y="345" width="119.2" height="35" fill="#eae3e3" rx="2"/>
  <text x="19" y="356" fill="#000000" font-size="7" opacity="0.8">fg</text>
  <text x="75.6" y="376" fill="#000000" font-size="8" text-anchor="middle">#eae3e3</text>
  <rect x="138.2" y="345" width="119.2" height="35" fill="#6e6767" rx="2"/>
  <text x="141.2" y="356" fill="#ffffff" font-size="7" opacity="0.8">comment</text>
  <text x="197.79999999999998" y="376" fill="#ffffff" font-size="8" text-anchor="middle">#6e6767</text>
  <rect x="260.4" y="345" width="119.2" height="35" fill="#635b5b" rx="2"/>
  <text x="263.4" y="356" fill="#ffffff" font-size="7" opacity="0.8">line_nr</text>
  <text x="320" y="376" fill="#ffffff" font-size="8" text-anchor="middle">#635b5b</text>
  <rect x="382.6" y="345" width="119.2" height="35" fill="#575151" rx="2"/>
  <text x="385.6" y="356" fill="#ffffff" font-size="7" opacity="0.8">border</text>
  <text x="442.20000000000005" y="376" fill="#ffffff" font-size="8" text-anchor="middle">#575151</text>
  <rect x="504.8" y="345" width="119.2" height="35" fill="#867e7e" rx="2"/>
  <text x="507.8" y="356" fill="#000000" font-size="7" opacity="0.8">delimiter</text>
  <text x="564.4" y="376" fill="#000000" font-size="8" text-anchor="middle">#867e7e</text>
  <text x="16" y="395" fill="#888" font-size="10">ui</text>
  <rect x="16" y="401" width="119.2" height="35" fill="#b89753" rx="2"/>
  <text x="19" y="412" fill="#000000" font-size="7" opacity="0.8">navigation</text>
  <text x="75.6" y="432" fill="#000000" font-size="8" text-anchor="middle">#b89753</text>
  <rect x="138.2" y="401" width="119.2" height="35" fill="#e9493c" rx="2"/>
  <text x="141.2" y="412" fill="#ffffff" font-size="7" opacity="0.8">attention</text>
  <text x="197.79999999999998" y="432" fill="#ffffff" font-size="8" text-anchor="middle">#e9493c</text>
  <rect x="260.4" y="401" width="119.2" height="35" fill="#46381c" rx="2"/>
  <text x="263.4" y="412" fill="#ffffff" font-size="7" opacity="0.8">frame</text>
  <text x="320" y="432" fill="#ffffff" font-size="8" text-anchor="middle">#46381c</text>
  <rect x="382.6" y="401" width="119.2" height="35" fill="#3c2b00" rx="2"/>
  <text x="385.6" y="412" fill="#ffffff" font-size="7" opacity="0.8">search_bg</text>
  <text x="442.20000000000005" y="432" fill="#ffffff" font-size="8" text-anchor="middle">#3c2b00</text>
  <rect x="504.8" y="401" width="119.2" height="35" fill="#2d2727" rx="2"/>
  <text x="507.8" y="412" fill="#ffffff" font-size="7" opacity="0.8">pmenu_sel</text>
  <text x="564.4" y="432" fill="#ffffff" font-size="8" text-anchor="middle">#2d2727</text>
  <text x="16" y="459" fill="#888" font-size="10">syntax preview</text>
  <rect x="16" y="465" width="608" height="120" fill="#1f1919" rx="4"/>
  <text x="28" y="481" fill="#e9493c" font-size="11" font-family="monospace">import</text>
  <text x="67.6" y="481" fill="#eae3e3" font-size="11" font-family="monospace"> { useState } </text>
  <text x="160" y="481" fill="#e9493c" font-size="11" font-family="monospace">from</text>
  <text x="186.4" y="481" fill="#77ceda" font-size="11" font-family="monospace"> "react"</text>
  <text x="28" y="497" fill="#e9493c" font-size="11" font-family="monospace">const</text>
  <text x="61" y="497" fill="#eae3e3" font-size="11" font-family="monospace"> count</text>
  <text x="100.6" y="497" fill="#eae3e3" font-size="11" font-family="monospace"> = </text>
  <text x="120.39999999999999" y="497" fill="#d2b06c" font-size="11" font-family="monospace">42</text>
  <text x="28" y="513" fill="#e9493c" font-size="11" font-family="monospace">function</text>
  <text x="80.8" y="513" fill="#e6d0cd" font-size="11" font-family="monospace"> greet</text>
  <text x="120.39999999999999" y="513" fill="#867e7e" font-size="11" font-family="monospace">(</text>
  <text x="126.99999999999999" y="513" fill="#b8a5e1" font-size="11" font-family="monospace">name</text>
  <text x="153.39999999999998" y="513" fill="#867e7e" font-size="11" font-family="monospace">: </text>
  <text x="166.59999999999997" y="513" fill="#6eadd4" font-size="11" font-family="monospace">string</text>
  <text x="206.19999999999996" y="513" fill="#867e7e" font-size="11" font-family="monospace">)</text>
  <text x="28" y="529" fill="#6e6767" font-size="11" font-family="monospace">  // call the greeting</text>
  <text x="28" y="545" fill="#818e50" font-size="11" font-family="monospace">  console</text>
  <text x="87.4" y="545" fill="#867e7e" font-size="11" font-family="monospace">.log(</text>
  <text x="120.4" y="545" fill="#77ceda" font-size="11" font-family="monospace">`Hello ${</text>
  <text x="179.8" y="545" fill="#eae3e3" font-size="11" font-family="monospace">name</text>
  <text x="206.20000000000002" y="545" fill="#77ceda" font-size="11" font-family="monospace">}`</text>
  <text x="219.4" y="545" fill="#867e7e" font-size="11" font-family="monospace">)</text>
  <text x="28" y="561" fill="#e9493c" font-size="11" font-family="monospace">  return</text>
  <text x="80.8" y="561" fill="#b89753" font-size="11" font-family="monospace"> true</text>
  <text x="28" y="577" fill="#e9493c" font-size="11" font-family="monospace">class</text>
  <text x="61" y="577" fill="#6eadd4" font-size="11" font-family="monospace"> MyError</text>
  <text x="113.8" y="577" fill="#e9493c" font-size="11" font-family="monospace"> extends </text>
  <text x="173.2" y="577" fill="#ee79a1" font-size="11" font-family="monospace">Error</text>
</svg>