<svg xmlns="http://www.w3.org/2000/svg" width="640" height="609" style="background:#0a0a0a; font-family:ui-monospace,monospace;">
  <text x="16" y="32" fill="#ccc" font-size="16" font-weight="bold">Lingsha</text>  <text x="216" y="32" fill="#666" font-size="12">starrail / dark</text>
  <text x="16" y="56" fill="#888" font-size="10">AI impression</text>
  <rect x="16" y="62" width="200.66666666666666" height="35" fill="#c03127" rx="2"/>
  <text x="19" y="73" fill="#ffffff" font-size="7" opacity="0.8">primary</text>
  <text x="116.33333333333333" y="93" fill="#ffffff" font-size="8" text-anchor="middle">#c03127</text>
  <rect x="219.66666666666666" y="62" width="200.66666666666666" height="35" fill="#352a26" rx="2"/>
  <text x="222.66666666666666" y="73" fill="#ffffff" font-size="7" opacity="0.8">secondary</text>
  <text x="320" y="93" fill="#ffffff" font-size="8" text-anchor="middle">#352a26</text>
  <rect x="423.3333333333333" y="62" width="200.66666666666666" height="35" fill="#569c87" rx="2"/>
  <text x="426.3333333333333" y="73" fill="#000000" font-size="7" opacity="0.8">tertiary</text>
  <text x="523.6666666666666" y="93" fill="#000000" font-size="8" text-anchor="middle">#569c87</text>
  <text x="16" y="112" fill="#888" font-size="10">AI neutral</text>
  <rect x="16" y="118" width="302.5" height="28" fill="#27201f" rx="2"/>
  <text x="19" y="129" fill="#ffffff" font-size="7" opacity="0.8">bg</text>
  <text x="167.25" y="142" fill="#ffffff" font-size="8" text-anchor="middle">#27201f</text>
  <rect x="321.5" y="118" width="302.5" height="28" fill="#e5dbd9" rx="2"/>
  <text x="324.5" y="129" fill="#000000" font-size="7" opacity="0.8">fg</text>
  <text x="472.75" y="142" fill="#000000" font-size="8" text-anchor="middle">#e5dbd9</text>
  <text x="16" y="161" fill="#888" font-size="10">accent (generated)</text>
  <rect x="16" y="167" width="119.2" height="40" fill="#e35446" rx="2"/>
  <text x="19" y="178" fill="#ffffff" font-size="7" opacity="0.8">c1 keyword</text>
  <text x="75.6" y="203" fill="#ffffff" font-size="8" text-anchor="middle">#e35446</text>
  <rect x="138.2" y="167" width="119.2" height="40" fill="#c16d61" rx="2"/>
  <text x="141.2" y="178" fill="#000000" font-size="7" opacity="0.8">c1v tag</text>
  <text x="197.79999999999998" y="203" fill="#000000" font-size="8" text-anchor="middle">#c16d61</text>
  <rect x="260.4" y="167" width="119.2" height="40" fill="#937f7d" rx="2"/>
  <text x="263.4" y="178" fill="#000000" font-size="7" opacity="0.8">c2 func</text>
  <text x="320" y="203" fill="#000000" font-size="8" text-anchor="middle">#937f7d</text>
  <rect x="382.6" y="167" width="119.2" height="40" fill="#569c87" rx="2"/>
  <text x="385.6" y="178" fill="#000000" font-size="7" opacity="0.8">c3 const</text>
  <text x="442.20000000000005" y="203" fill="#000000" font-size="8" text-anchor="middle">#569c87</text>
  <rect x="504.8" y="167" width="119.2" height="40" fill="#6fb59f" rx="2"/>
  <text x="507.8" y="178" fill="#000000" font-size="7" opacity="0.8">c3v num</text>
  <text x="564.4" y="203" fill="#000000" font-size="8" text-anchor="middle">#6fb59f</text>
  <text x="16" y="222" fill="#888" font-size="10">accent (gap-filled)</text>
  <rect x="16" y="228" width="119.2" height="40" fill="#86cbd6" rx="2"/>
  <text x="19" y="239" fill="#000000" font-size="7" opacity="0.8">c4 string</text>
  <text x="75.6" y="264" fill="#000000" font-size="8" text-anchor="middle">#86cbd6</text>
  <rect x="138.2" y="228" width="119.2" height="40" fill="#8590bd" rx="2"/>
  <text x="141.2" y="239" fill="#000000" font-size="7" opacity="0.8">c5 type</text>
  <text x="197.79999999999998" y="264" fill="#000000" font-size="8" text-anchor="middle">#8590bd</text>
  <rect x="260.4" y="228" width="119.2" height="40" fill="#9ca876" rx="2"/>
  <text x="263.4" y="239" fill="#000000" font-size="7" opacity="0.8">c6 special</text>
  <text x="320" y="264" fill="#000000" font-size="8" text-anchor="middle">#9ca876</text>
  <rect x="382.6" y="228" width="119.2" height="40" fill="#bba6d6" rx="2"/>
  <text x="385.6" y="239" fill="#000000" font-size="7" opacity="0.8">c7 preproc</text>
  <text x="442.20000000000005" y="264" fill="#000000" font-size="8" text-anchor="middle">#bba6d6</text>
  <rect x="504.8" y="228" width="119.2" height="40" fill="#ee79a1" rx="2"/>
  <text x="507.8" y="239" fill="#000000" font-size="7" opacity="0.8">c8 error</text>
  <text x="564.4" y="264" fill="#000000" font-size="8" text-anchor="middle">#ee79a1</text>
  <text x="16" y="283" fill="#888" font-size="10">neutral bg</text>
  <rect x="16" y="289" width="119.2" height="35" fill="#1f1918" rx="2"/>
  <text x="19" y="300" fill="#ffffff" font-size="7" opacity="0.8">bg</text>
  <text x="75.6" y="320" fill="#ffffff" font-size="8" text-anchor="middle">#1f1918</text>
  <rect x="138.2" y="289" width="119.2" height="35" fill="#241d1c" rx="2"/>
  <text x="141.2" y="300" fill="#ffffff" font-size="7" opacity="0.8">surface</text>
  <text x="197.79999999999998" y="320" fill="#ffffff" font-size="8" text-anchor="middle">#241d1c</text>
  <rect x="260.4" y="289" width="119.2" height="35" fill="#302321" rx="2"/>
  <text x="263.4" y="300" fill="#ffffff" font-size="7" opacity="0.8">cursor</text>
  <text x="320" y="320" fill="#ffffff" font-size="8" text-anchor="middle">#302321</text>
  <rect x="382.6" y="289" width="119.2" height="35" fill="#292221" rx="2"/>
  <text x="385.6" y="300" fill="#ffffff" font-size="7" opacity="0.8">popup</text>
  <text x="442.20000000000005" y="320" fill="#ffffff" font-size="8" text-anchor="middle">#292221</text>
  <rect x="504.8" y="289" width="119.2" height="35" fill="#402622" rx="2"/>
  <text x="507.8" y="300" fill="#ffffff" font-size="7" opacity="0.8">visual</text>
  <text x="564.4" y="320" fill="#ffffff" font-size="8" text-anchor="middle">#402622</text>
  <text x="16" y="339" fill="#888" font-size="10">neutral fg</text>
  <rect x="16" y="345" width="119.2" height="35" fill="#e5dbd9" rx="2"/>
  <text x="19" y="356" fill="#000000" font-size="7" opacity="0.8">fg</text>
  <text x="75.6" y="376" fill="#000000" font-size="8" text-anchor="middle">#e5dbd9</text>
  <rect x="138.2" y="345" width="119.2" height="35" fill="#6c6463" rx="2"/>
  <text x="141.2" y="356" fill="#ffffff" font-size="7" opacity="0.8">comment</text>
  <text x="197.79999999999998" y="376" fill="#ffffff" font-size="8" text-anchor="middle">#6c6463</text>
  <rect x="260.4" y="345" width="119.2" height="35" fill="#615957" rx="2"/>
  <text x="263.4" y="356" fill="#ffffff" font-size="7" opacity="0.8">line_nr</text>
  <text x="320" y="376" fill="#ffffff" font-size="8" text-anchor="middle">#615957</text>
  <rect x="382.6" y="345" width="119.2" height="35" fill="#564e4c" rx="2"/>
  <text x="385.6" y="356" fill="#ffffff" font-size="7" opacity="0.8">border</text>
  <text x="442.20000000000005" y="376" fill="#ffffff" font-size="8" text-anchor="middle">#564e4c</text>
  <rect x="504.8" y="345" width="119.2" height="35" fill="#877e7c" rx="2"/>
  <text x="507.8" y="356" fill="#000000" font-size="7" opacity="0.8">delimiter</text>
  <text x="564.4" y="376" fill="#000000" font-size="8" text-anchor="middle">#877e7c</text>
  <text x="16" y="395" fill="#888" font-size="10">ui</text>
  <rect x="16" y="401" width="119.2" height="35" fill="#e35446" rx="2"/>
  <text x="19" y="412" fill="#ffffff" font-size="7" opacity="0.8">navigation</text>
  <text x="75.6" y="432" fill="#ffffff" font-size="8" text-anchor="middle">#e35446</text>
  <rect x="138.2" y="401" width="119.2" height="35" fill="#569c87" rx="2"/>
  <text x="141.2" y="412" fill="#000000" font-size="7" opacity="0.8">attention</text>
  <text x="197.79999999999998" y="432" fill="#000000" font-size="8" text-anchor="middle">#569c87</text>
  <rect x="260.4" y="401" width="119.2" height="35" fill="#61241e" rx="2"/>
  <text x="263.4" y="412" fill="#ffffff" font-size="7" opacity="0.8">frame</text>
  <text x="320" y="432" fill="#ffffff" font-size="8" text-anchor="middle">#61241e</text>
  <rect x="382.6" y="401" width="119.2" height="35" fill="#5d0001" rx="2"/>
  <text x="385.6" y="412" fill="#ffffff" font-size="7" opacity="0.8">search_bg</text>
  <text x="442.20000000000005" y="432" fill="#ffffff" font-size="8" text-anchor="middle">#5d0001</text>
  <rect x="504.8" y="401" width="119.2" height="35" fill="#402622" rx="2"/>
  <text x="507.8" y="412" fill="#ffffff" font-size="7" opacity="0.8">pmenu_sel</text>
  <text x="564.4" y="432" fill="#ffffff" font-size="8" text-anchor="middle">#402622</text>
  <text x="16" y="459" fill="#888" font-size="10">syntax preview</text>
  <rect x="16" y="465" width="608" height="120" fill="#1f1918" rx="4"/>
  <text x="28" y="481" fill="#e35446" font-size="11" font-family="monospace">import</text>
  <text x="67.6" y="481" fill="#e5dbd9" font-size="11" font-family="monospace"> { useState } </text>
  <text x="160" y="481" fill="#e35446" font-size="11" font-family="monospace">from</text>
  <text x="186.4" y="481" fill="#86cbd6" font-size="11" font-family="monospace"> "react"</text>
  <text x="28" y="497" fill="#e35446" font-size="11" font-family="monospace">const</text>
  <text x="61" y="497" fill="#e5dbd9" font-size="11" font-family="monospace"> count</text>
  <text x="100.6" y="497" fill="#e5dbd9" font-size="11" font-family="monospace"> = </text>
  <text x="120.39999999999999" y="497" fill="#6fb59f" font-size="11" font-family="monospace">42</text>
  <text x="28" y="513" fill="#e35446" font-size="11" font-family="monospace">function</text>
  <text x="80.8" y="513" fill="#937f7d" font-size="11" font-family="monospace"> greet</text>
  <text x="120.39999999999999" y="513" fill="#877e7c" font-size="11" font-family="monospace">(</text>
  <text x="126.99999999999999" y="513" fill="#bba6d6" font-size="11" font-family="monospace">name</text>
  <text x="153.39999999999998" y="513" fill="#877e7c" font-size="11" font-family="monospace">: </text>
  <text x="166.59999999999997" y="513" fill="#8590bd" font-size="11" font-family="monospace">string</text>
  <text x="206.19999999999996" y="513" fill="#877e7c" font-size="11" font-family="monospace">)</text>
  <text x="28" y="529" fill="#6c6463" font-size="11" font-family="monospace">  // call the greeting</text>
  <text x="28" y="545" fill="#9ca876" font-size="11" font-family="monospace">  console</text>
  <text x="87.4" y="545" fill="#877e7c" font-size="11" font-family="monospace">.log(</text>
  <text x="120.4" y="545" fill="#86cbd6" font-size="11" font-family="monospace">`Hello ${</text>
  <text x="179.8" y="545" fill="#e5dbd9" font-size="11" font-family="monospace">name</text>
  <text x="206.20000000000002" y="545" fill="#86cbd6" font-size="11" font-family="monospace">}`</text>
  <text x="219.4" y="545" fill="#877e7c" font-size="11" font-family="monospace">)</text>
  <text x="28" y="561" fill="#e35446" font-size="11" font-family="monospace">  return</text>
  <text x="80.8" y="561" fill="#569c87" font-size="11" font-family="monospace"> true</text>
  <text x="28" y="577" fill="#e35446" font-size="11" font-family="monospace">class</text>
  <text x="61" y="577" fill="#8590bd" font-size="11" font-family="monospace"> MyError</text>
  <text x="113.8" y="577" fill="#e35446" font-size="11" font-family="monospace"> extends </text>
  <text x="173.2" y="577" fill="#ee79a1" font-size="11" font-family="monospace">Error</text>
</svg>